<?xml version="1.0" standalone="no"?>
<!DOCTYPE svg PUBLIC "-//W3C//DTD SVG 20010904//EN"
 "http://www.w3.org/TR/2001/REC-SVG-20010904/DTD/svg10.dtd">
<svg version="1.0" xmlns="http://www.w3.org/2000/svg"
 width="512.000000pt" height="512.000000pt" viewBox="0 0 512.000000 512.000000"
 preserveAspectRatio="xMidYMid meet">

<g transform="translate(0.000000,512.000000) scale(0.100000,-0.100000)"
fill="#105bd8" stroke="none">
<path d="M4812 5093 c-33 -19 -90 -71 -166 -153 -188 -205 -425 -412 -656
-574 -162 -113 -135 -108 -232 -44 -211 142 -440 245 -674 304 -319 80 -655
86 -974 18 -889 -191 -1570 -945 -1669 -1846 -14 -125 -14 -350 0 -458 l10
-85 -62 -55 c-295 -260 -345 -308 -366 -350 -70 -137 34 -299 191 -300 67 0
114 25 216 116 309 278 681 584 913 752 111 80 273 189 474 318 29 19 65 53
80 76 24 35 28 52 28 108 0 88 -37 152 -109 189 -73 38 -136 34 -223 -14 -107
-58 -393 -251 -572 -385 l-164 -122 6 103 c22 417 238 854 567 1145 533 472
1293 563 1925 230 96 -50 119 -67 117 -82 -14 -88 -13 -117 2 -159 36 -92 149
-151 242 -126 96 26 517 303 783 515 22 17 -94 -208 -186 -359 -210 -348 -475
-683 -1069 -1349 -782 -878 -1023 -1165 -1304 -1551 -206 -285 -420 -621 -439
-692 -42 -155 117 -303 270 -252 60 20 95 56 160 161 50 82 211 330 225 347 2
2 52 -4 111 -13 536 -85 1104 61 1546 396 103 78 280 250 360 348 344 426 509
971 456 1506 -14 147 -52 323 -101 470 l-40 120 80 120 c316 475 487 892 538
1314 21 168 13 212 -50 275 -70 69 -160 83 -244 38z m-507 -2321 c67 -501
-103 -1025 -456 -1405 -292 -315 -673 -507 -1104 -557 -99 -11 -240 -12 -324
-2 l-54 7 109 140 c214 277 460 564 970 1135 338 379 531 602 688 794 l121
148 17 -73 c10 -41 25 -125 33 -187z"/>
<path d="M2569 3812 c-79 -41 -110 -95 -116 -206 l-6 -86 -71 0 c-127 0 -213
-62 -237 -171 -16 -69 5 -134 60 -189 52 -52 102 -70 195 -70 l56 0 0 -56 c0
-93 18 -143 70 -195 55 -55 120 -76 189 -60 109 24 171 110 171 237 l0 71 85
5 c105 7 161 36 201 103 52 90 41 189 -30 260 -48 48 -98 65 -190 65 l-66 0 0
66 c0 91 -17 142 -65 189 -69 69 -159 83 -246 37z"/>
<path d="M1300 2114 c-83 -36 -121 -103 -128 -221 l-5 -83 -74 0 c-112 0 -172
-32 -216 -115 -41 -78 -21 -191 45 -252 39 -37 92 -53 171 -53 l74 0 5 -82 c7
-120 46 -187 130 -223 75 -31 172 -13 232 43 47 44 66 97 66 185 l0 77 78 0
c87 0 140 19 184 66 98 105 67 268 -64 335 -28 14 -58 19 -118 19 l-80 0 0 75
c0 114 -37 182 -122 226 -45 23 -128 25 -178 3z"/>
</g>
</svg>
